<svg width="73" height="20" viewBox="0 0 73 20" fill="none" xmlns="http://www.w3.org/2000/svg">
<path fill-rule="evenodd" clip-rule="evenodd" d="M0.589111 2.22256C0.410592 2.22256 0.267778 2.169 0.160667 2.06189C0.053555 1.95478 0 1.81196 0 1.63344V0.615889C0 0.437369 0.053555 0.290093 0.160667 0.174056C0.267778 0.0580179 0.410592 0 0.589111 0H1.60667C1.78519 0 1.93246 0.0580179 2.0485 0.174056C2.16454 0.290093 2.22256 0.437369 2.22256 0.615889V1.63344C2.22256 1.81196 2.16454 1.95478 2.0485 2.06189C1.93246 2.169 1.78519 2.22256 1.60667 2.22256H0.589111ZM0.883667 19.0122C0.705147 19.0122 0.562334 18.9587 0.455222 18.8516C0.348111 18.7444 0.294556 18.6016 0.294556 18.4231V5.67689C0.294556 5.49837 0.348111 5.35556 0.455222 5.24844C0.562334 5.14133 0.705147 5.08778 0.883667 5.08778H1.33889C1.51741 5.08778 1.66022 5.14133 1.76733 5.24844C1.87444 5.35556 1.928 5.49837 1.928 5.67689V18.4231C1.928 18.6016 1.87444 18.7444 1.76733 18.8516C1.66022 18.9587 1.51741 19.0122 1.33889 19.0122H0.883667ZM12.2374 19.28C10.3808 19.28 8.93932 18.7132 7.91283 17.5796C6.88635 16.446 6.34633 14.9777 6.29278 13.1747L6.266 12.05L6.29278 10.9253C6.34633 9.12229 6.88635 7.65399 7.91283 6.52039C8.93932 5.38679 10.3808 4.82 12.2374 4.82C14.094 4.82 15.5356 5.38679 16.5621 6.52039C17.5885 7.65399 18.1286 9.12229 18.1821 10.9253C18.2 11.1039 18.2089 11.4787 18.2089 12.05C18.2089 12.6213 18.2 12.9961 18.1821 13.1747C18.1286 14.9777 17.5885 16.446 16.5621 17.5796C15.5356 18.7132 14.094 19.28 12.2374 19.28ZM12.2374 17.7269C13.5049 17.7269 14.5269 17.3208 15.3035 16.5085C16.0801 15.6962 16.4951 14.5403 16.5487 13.0408C16.5665 12.8623 16.5754 12.532 16.5754 12.05C16.5754 11.568 16.5665 11.2377 16.5487 11.0592C16.4951 9.55966 16.0801 8.40376 15.3035 7.5915C14.5269 6.77924 13.5049 6.37311 12.2374 6.37311C10.97 6.37311 9.94795 6.77924 9.17139 7.5915C8.39483 8.40376 7.97978 9.55966 7.92622 11.0592L7.89944 12.05L7.92622 13.0408C7.97978 14.5403 8.39483 15.6962 9.17139 16.5085C9.94795 17.3208 10.97 17.7269 12.2374 17.7269ZM25.5192 19.0122C25.3853 19.0122 25.2715 18.9654 25.1778 18.8716C25.0841 18.7779 25.0372 18.6641 25.0372 18.5302V7.46431H21.3218C21.1879 7.46431 21.0741 7.41744 20.9804 7.32372C20.8867 7.23 20.8398 7.1095 20.8398 6.96222V5.45597C20.8398 5.30869 20.8833 5.18819 20.9703 5.09447C21.0574 5.00075 21.1745 4.95389 21.3218 4.95389H31.5844C31.7317 4.95389 31.8522 5.00075 31.9459 5.09447C32.0396 5.18819 32.0865 5.30869 32.0865 5.45597V6.96222C32.0865 7.1095 32.0396 7.23 31.9459 7.32372C31.8522 7.41744 31.7317 7.46431 31.5844 7.46431H27.8891V18.5302C27.8891 18.6641 27.8455 18.7779 27.7585 18.8716C27.6715 18.9654 27.5543 19.0122 27.4071 19.0122H25.5192ZM32.4547 19.0122C32.3342 19.0122 32.2337 18.9721 32.1534 18.8917C32.0731 18.8114 32.0329 18.711 32.0329 18.5905L32.0731 18.4097L36.8931 5.45597C37.027 5.12125 37.268 4.95389 37.6161 4.95389H39.8252C40.1734 4.95389 40.4144 5.12125 40.5482 5.45597L45.3682 18.4097L45.4084 18.5905C45.4084 18.711 45.3649 18.8114 45.2779 18.8917C45.1908 18.9721 45.0938 19.0122 44.9867 19.0122H43.1992C42.9181 19.0122 42.7239 18.885 42.6168 18.6306L41.693 16.2006H35.7483L34.8245 18.6306C34.7174 18.885 34.5233 19.0122 34.2421 19.0122H32.4547ZM36.4513 13.8709H40.9901L38.7207 7.68522L36.4513 13.8709ZM52.625 19.2131C51.42 19.2131 50.3891 19.0323 49.5322 18.6708C48.6753 18.3093 48.0259 17.834 47.5841 17.2449C47.1423 16.6558 46.908 16.0131 46.8812 15.3169C46.8812 15.2098 46.9214 15.1127 47.0017 15.0257C47.082 14.9387 47.1824 14.8951 47.3029 14.8951H49.1305C49.2778 14.8951 49.3983 14.9286 49.492 14.9956C49.5858 15.0625 49.6728 15.1562 49.7531 15.2767C49.887 15.7319 50.1916 16.1135 50.6669 16.4215C51.1422 16.7294 51.7949 16.8834 52.625 16.8834C53.5623 16.8834 54.2685 16.7261 54.7438 16.4114C55.2191 16.0968 55.4568 15.665 55.4568 15.1161C55.4568 14.7546 55.3363 14.4533 55.0953 14.2123C54.8543 13.9713 54.4894 13.7604 54.0007 13.5797C53.512 13.3989 52.7857 13.1814 51.8217 12.927C50.2418 12.5521 49.0837 12.0567 48.3473 11.4408C47.6109 10.8249 47.2427 9.94126 47.2427 8.78981C47.2427 8.01325 47.4569 7.32038 47.8854 6.71118C48.3138 6.10198 48.9263 5.62333 49.723 5.27522C50.5196 4.92711 51.4468 4.75306 52.5045 4.75306C53.6158 4.75306 54.5765 4.94719 55.3865 5.33547C56.1965 5.72375 56.8124 6.20909 57.2342 6.79151C57.6559 7.37393 57.8802 7.953 57.9069 8.52872C57.9069 8.63583 57.8668 8.7329 57.7864 8.81993C57.7061 8.90696 57.6057 8.95047 57.4852 8.95047H55.5773C55.2827 8.95047 55.0819 8.82997 54.9748 8.58897C54.9078 8.16053 54.6468 7.80238 54.1915 7.51451C53.7363 7.22665 53.174 7.08272 52.5045 7.08272C51.7681 7.08272 51.1891 7.2233 50.7673 7.50447C50.3456 7.78564 50.1347 8.194 50.1347 8.72956C50.1347 9.09106 50.2418 9.3923 50.456 9.63331C50.6702 9.87431 51.005 10.0852 51.4602 10.2659C51.9154 10.4467 52.5782 10.6509 53.4484 10.8785C54.6401 11.1463 55.5873 11.4475 56.2902 11.7822C56.9932 12.1169 57.512 12.5387 57.8467 13.0475C58.1814 13.5563 58.3488 14.2056 58.3488 14.9956C58.3488 15.8658 58.1111 16.619 57.6358 17.2549C57.1605 17.8909 56.4911 18.3762 55.6275 18.711C54.7639 19.0457 53.7631 19.2131 52.625 19.2131ZM61.7897 19.0122C61.6558 19.0122 61.542 18.9654 61.4483 18.8716C61.3546 18.7779 61.3077 18.6641 61.3077 18.5302V5.45597C61.3077 5.30869 61.3512 5.18819 61.4383 5.09447C61.5253 5.00075 61.6424 4.95389 61.7897 4.95389H63.5972C63.7445 4.95389 63.865 5.00075 63.9587 5.09447C64.0524 5.18819 64.0993 5.30869 64.0993 5.45597V10.1555L68.5779 5.31539C68.7787 5.07439 69.0398 4.95389 69.3611 4.95389H71.4096C71.5168 4.95389 71.6138 4.99406 71.7009 5.07439C71.7879 5.15472 71.8314 5.25514 71.8314 5.37564C71.8314 5.46936 71.7979 5.54969 71.731 5.61664L66.2683 11.6818L72.1326 18.3294C72.1862 18.4231 72.213 18.5101 72.213 18.5905C72.213 18.711 72.1728 18.8114 72.0925 18.8917C72.0121 18.9721 71.9184 19.0122 71.8113 19.0122H69.7026C69.4214 19.0122 69.2206 18.9553 69.1001 18.8415C68.9796 18.7277 68.9126 18.6641 68.8992 18.6507L64.0993 13.3487V18.5302C64.0993 18.6641 64.0524 18.7779 63.9587 18.8716C63.865 18.9654 63.7445 19.0122 63.5972 19.0122H61.7897Z" fill="white"/>
</svg>
